<svg width="349" height="76" viewBox="0 0 349 76" fill="none" xmlns="http://www.w3.org/2000/svg">
    <g clip-path="url(#clip0_38_28)">
        <path d="M0 50.0763L25.3735 38.7832L39.978 47.253L42.9284 75.0399L24.9309 74.8913L27.5863 55.5742L24.4883 53.7911L9.29377 65.6786L0 50.0763Z"
              fill="url(#paint0_linear_38_28)"/>
        <path d="M41.6016 46.0634L64.0246 62.5572L72.8758 46.6577L54.8784 39.3767V35.8104L72.8758 28.3808L64.0246 12.6299L41.6016 29.1237V46.0634Z"
              fill="url(#paint1_linear_38_28)"/>
        <path d="M39.978 27.7869L42.9284 0L24.9309 0.297183L27.5863 19.6143L24.4883 21.3974L9.14625 9.50997L0 24.9637L25.3735 36.2567L39.978 27.7869Z"
              fill="url(#paint2_linear_38_28)"/>
        <path d="M123.22 57V15H131.44V57H123.22ZM95.56 57V14.94H103.78V57H95.56ZM101.68 39.3V31.74H127.12V39.3H101.68ZM153.52 57.72C150.48 57.72 147.76 57.06 145.36 55.74C143 54.38 141.14 52.52 139.78 50.16C138.46 47.8 137.8 45.08 137.8 42C137.8 38.92 138.46 36.2 139.78 33.84C141.1 31.48 142.94 29.64 145.3 28.32C147.66 26.96 150.36 26.28 153.4 26.28C156.48 26.28 159.2 26.96 161.56 28.32C163.92 29.64 165.76 31.48 167.08 33.84C168.4 36.2 169.06 38.92 169.06 42C169.06 45.08 168.4 47.8 167.08 50.16C165.76 52.52 163.92 54.38 161.56 55.74C159.24 57.06 156.56 57.72 153.52 57.72ZM153.52 50.4C155 50.4 156.3 50.04 157.42 49.32C158.54 48.6 159.4 47.62 160 46.38C160.64 45.1 160.96 43.64 160.96 42C160.96 40.36 160.64 38.92 160 37.68C159.36 36.4 158.46 35.4 157.3 34.68C156.18 33.96 154.88 33.6 153.4 33.6C151.96 33.6 150.66 33.96 149.5 34.68C148.38 35.4 147.5 36.4 146.86 37.68C146.22 38.92 145.9 40.36 145.9 42C145.9 43.64 146.22 45.1 146.86 46.38C147.5 47.62 148.4 48.6 149.56 49.32C150.72 50.04 152.04 50.4 153.52 50.4ZM186.643 57.72C183.323 57.72 180.803 56.9 179.083 55.26C177.403 53.62 176.563 51.28 176.563 48.24V17.64H184.483V46.5C184.483 47.78 184.763 48.76 185.323 49.44C185.883 50.08 186.703 50.4 187.783 50.4C188.183 50.4 188.623 50.32 189.103 50.16C189.583 49.96 190.083 49.68 190.603 49.32L193.363 55.26C192.403 55.98 191.323 56.56 190.123 57C188.963 57.48 187.803 57.72 186.643 57.72ZM171.703 33.72V27H191.983V33.72H171.703ZM213.664 57.72C211.544 57.72 209.564 57.46 207.724 56.94C205.884 56.42 204.244 55.7 202.804 54.78C201.364 53.82 200.164 52.76 199.204 51.6C198.284 50.44 197.684 49.22 197.404 47.94L205.444 45.54C205.964 46.9 206.884 48.08 208.204 49.08C209.524 50.04 211.184 50.54 213.184 50.58C215.304 50.62 217.024 50.16 218.344 49.2C219.704 48.24 220.384 47 220.384 45.48C220.384 44.16 219.844 43.06 218.764 42.18C217.724 41.26 216.284 40.56 214.444 40.08L208.984 38.64C206.944 38.12 205.144 37.34 203.584 36.3C202.024 35.22 200.804 33.9 199.924 32.34C199.044 30.78 198.604 28.96 198.604 26.88C198.604 22.92 199.904 19.84 202.504 17.64C205.144 15.4 208.864 14.28 213.664 14.28C216.344 14.28 218.684 14.68 220.684 15.48C222.724 16.24 224.424 17.34 225.784 18.78C227.144 20.22 228.184 21.92 228.904 23.88L220.924 26.34C220.444 24.98 219.564 23.82 218.284 22.86C217.004 21.9 215.384 21.42 213.424 21.42C211.424 21.42 209.844 21.88 208.684 22.8C207.564 23.72 207.004 25.02 207.004 26.7C207.004 28.02 207.444 29.06 208.324 29.82C209.244 30.58 210.484 31.16 212.044 31.56L217.564 32.94C221.164 33.82 223.964 35.4 225.964 37.68C227.964 39.96 228.964 42.5 228.964 45.3C228.964 47.78 228.364 49.96 227.164 51.84C225.964 53.68 224.224 55.12 221.944 56.16C219.664 57.2 216.904 57.72 213.664 57.72ZM235.169 69V27H242.609L243.089 32.52V69H235.169ZM252.149 57.72C249.629 57.72 247.489 57.08 245.729 55.8C244.009 54.52 242.689 52.7 241.769 50.34C240.849 47.98 240.389 45.2 240.389 42C240.389 38.76 240.849 35.98 241.769 33.66C242.689 31.3 244.009 29.48 245.729 28.2C247.489 26.92 249.629 26.28 252.149 26.28C254.909 26.28 257.289 26.92 259.289 28.2C261.329 29.48 262.909 31.3 264.029 33.66C265.149 35.98 265.709 38.76 265.709 42C265.709 45.2 265.149 47.98 264.029 50.34C262.909 52.7 261.329 54.52 259.289 55.8C257.289 57.08 254.909 57.72 252.149 57.72ZM250.109 50.46C251.549 50.46 252.809 50.1 253.889 49.38C255.009 48.66 255.889 47.66 256.529 46.38C257.169 45.1 257.489 43.64 257.489 42C257.489 40.36 257.169 38.9 256.529 37.62C255.929 36.34 255.069 35.36 253.949 34.68C252.869 33.96 251.609 33.6 250.169 33.6C248.809 33.6 247.589 33.96 246.509 34.68C245.429 35.4 244.589 36.4 243.989 37.68C243.389 38.92 243.089 40.36 243.089 42C243.089 43.64 243.389 45.1 243.989 46.38C244.589 47.66 245.409 48.66 246.449 49.38C247.529 50.1 248.749 50.46 250.109 50.46ZM285.004 57.72C281.964 57.72 279.244 57.06 276.844 55.74C274.484 54.38 272.624 52.52 271.264 50.16C269.944 47.8 269.284 45.08 269.284 42C269.284 38.92 269.944 36.2 271.264 33.84C272.584 31.48 274.424 29.64 276.784 28.32C279.144 26.96 281.844 26.28 284.884 26.28C287.964 26.28 290.684 26.96 293.044 28.32C295.404 29.64 297.244 31.48 298.564 33.84C299.884 36.2 300.544 38.92 300.544 42C300.544 45.08 299.884 47.8 298.564 50.16C297.244 52.52 295.404 54.38 293.044 55.74C290.724 57.06 288.044 57.72 285.004 57.72ZM285.004 50.4C286.484 50.4 287.784 50.04 288.904 49.32C290.024 48.6 290.884 47.62 291.484 46.38C292.124 45.1 292.444 43.64 292.444 42C292.444 40.36 292.124 38.92 291.484 37.68C290.844 36.4 289.944 35.4 288.784 34.68C287.664 33.96 286.364 33.6 284.884 33.6C283.444 33.6 282.144 33.96 280.984 34.68C279.864 35.4 278.984 36.4 278.344 37.68C277.704 38.92 277.384 40.36 277.384 42C277.384 43.64 277.704 45.1 278.344 46.38C278.984 47.62 279.884 48.6 281.044 49.32C282.204 50.04 283.524 50.4 285.004 50.4ZM318.128 57.72C314.808 57.72 312.288 56.9 310.568 55.26C308.888 53.62 308.048 51.28 308.048 48.24V17.64H315.968V46.5C315.968 47.78 316.248 48.76 316.808 49.44C317.368 50.08 318.188 50.4 319.268 50.4C319.668 50.4 320.108 50.32 320.588 50.16C321.068 49.96 321.568 49.68 322.088 49.32L324.848 55.26C323.888 55.98 322.808 56.56 321.608 57C320.448 57.48 319.288 57.72 318.128 57.72ZM303.188 33.72V27H323.468V33.72H303.188Z"
              fill="url(#paint3_linear_38_28)"/>
    </g>
    <defs>
        <linearGradient id="paint0_linear_38_28" x1="21.4642" y1="38.7832" x2="21.4642" y2="75.0399"
                        gradientUnits="userSpaceOnUse">
            <stop stop-color="#B4C0D3"/>
            <stop offset="1" stop-color="#5D636D"/>
        </linearGradient>
        <linearGradient id="paint1_linear_38_28" x1="79.0857" y1="25.5857" x2="42.0857" y2="47.0857"
                        gradientUnits="userSpaceOnUse">
            <stop stop-color="#042947"/>
            <stop offset="1" stop-color="#0074D3"/>
        </linearGradient>
        <linearGradient id="paint2_linear_38_28" x1="21.4642" y1="0" x2="21.4642" y2="36.2567"
                        gradientUnits="userSpaceOnUse">
            <stop stop-color="#030B1F"/>
            <stop offset="1" stop-color="#0D2E85"/>
        </linearGradient>
        <linearGradient id="paint3_linear_38_28" x1="91" y1="31.5" x2="349" y2="31.5" gradientUnits="userSpaceOnUse">
            <stop/>
            <stop offset="1" stop-color="#1C1E22"/>
        </linearGradient>
        <clipPath id="clip0_38_28">
            <rect width="349" height="75.0399" fill="white"/>
        </clipPath>
    </defs>
</svg>
