<svg width="100%" height="80%" viewBox="0 0 349 300" fill="none" xmlns="http://www.w3.org/2000/svg">
<path d="M0 50.0307L25.3735 38.7479L39.978 47.21L42.9284 74.9716L24.9309 74.8231L27.5863 55.5236L24.4883 53.7421L9.29377 65.6187L0 50.0307Z" fill="black"/>
<path d="M41.6016 46.0214L64.0246 62.5002L72.8758 46.6152L54.8784 39.3408V35.7778L72.8758 28.3549L64.0246 12.6184L41.6016 29.0972V46.0214Z" fill="black"/>
<path d="M39.978 27.7616L42.9284 0L24.9309 0.296912L27.5863 19.5964L24.4883 21.3779L9.14625 9.5013L0 24.9409L25.3735 36.2237L39.978 27.7616Z" fill="black"/>
<path d="M123.096 57.0857V15.0857H131.316V57.0857H123.096ZM95.4358 57.0857V15.0257H103.656V57.0857H95.4358ZM101.556 39.3857V31.8257H126.996V39.3857H101.556ZM153.396 57.8057C150.356 57.8057 147.636 57.1457 145.236 55.8257C142.876 54.4657 141.016 52.6057 139.656 50.2457C138.336 47.8857 137.676 45.1657 137.676 42.0857C137.676 39.0057 138.336 36.2857 139.656 33.9257C140.976 31.5657 142.816 29.7257 145.176 28.4057C147.536 27.0457 150.236 26.3657 153.276 26.3657C156.356 26.3657 159.076 27.0457 161.436 28.4057C163.796 29.7257 165.636 31.5657 166.956 33.9257C168.276 36.2857 168.936 39.0057 168.936 42.0857C168.936 45.1657 168.276 47.8857 166.956 50.2457C165.636 52.6057 163.796 54.4657 161.436 55.8257C159.116 57.1457 156.436 57.8057 153.396 57.8057ZM153.396 50.4857C154.876 50.4857 156.176 50.1257 157.296 49.4057C158.416 48.6857 159.276 47.7057 159.876 46.4657C160.516 45.1857 160.836 43.7257 160.836 42.0857C160.836 40.4457 160.516 39.0057 159.876 37.7657C159.236 36.4857 158.336 35.4857 157.176 34.7657C156.056 34.0457 154.756 33.6857 153.276 33.6857C151.836 33.6857 150.536 34.0457 149.376 34.7657C148.256 35.4857 147.376 36.4857 146.736 37.7657C146.096 39.0057 145.776 40.4457 145.776 42.0857C145.776 43.7257 146.096 45.1857 146.736 46.4657C147.376 47.7057 148.276 48.6857 149.436 49.4057C150.596 50.1257 151.916 50.4857 153.396 50.4857ZM186.519 57.8057C183.199 57.8057 180.679 56.9857 178.959 55.3457C177.279 53.7057 176.439 51.3657 176.439 48.3257V17.7257H184.359V46.5857C184.359 47.8657 184.639 48.8457 185.199 49.5257C185.759 50.1657 186.579 50.4857 187.659 50.4857C188.059 50.4857 188.499 50.4057 188.979 50.2457C189.459 50.0457 189.959 49.7657 190.479 49.4057L193.239 55.3457C192.279 56.0657 191.199 56.6457 189.999 57.0857C188.839 57.5657 187.679 57.8057 186.519 57.8057ZM171.579 33.8057V27.0857H191.859V33.8057H171.579ZM213.54 57.8057C211.42 57.8057 209.44 57.5457 207.6 57.0257C205.76 56.5057 204.12 55.7857 202.68 54.8657C201.24 53.9057 200.04 52.8457 199.08 51.6857C198.16 50.5257 197.56 49.3057 197.28 48.0257L205.32 45.6257C205.84 46.9857 206.76 48.1657 208.08 49.1657C209.4 50.1257 211.06 50.6257 213.06 50.6657C215.18 50.7057 216.9 50.2457 218.22 49.2857C219.58 48.3257 220.26 47.0857 220.26 45.5657C220.26 44.2457 219.72 43.1457 218.64 42.2657C217.6 41.3457 216.16 40.6457 214.32 40.1657L208.86 38.7257C206.82 38.2057 205.02 37.4257 203.46 36.3857C201.9 35.3057 200.68 33.9857 199.8 32.4257C198.92 30.8657 198.48 29.0457 198.48 26.9657C198.48 23.0057 199.78 19.9257 202.38 17.7257C205.02 15.4857 208.74 14.3657 213.54 14.3657C216.22 14.3657 218.56 14.7657 220.56 15.5657C222.6 16.3257 224.3 17.4257 225.66 18.8657C227.02 20.3057 228.06 22.0057 228.78 23.9657L220.8 26.4257C220.32 25.0657 219.44 23.9057 218.16 22.9457C216.88 21.9857 215.26 21.5057 213.3 21.5057C211.3 21.5057 209.72 21.9657 208.56 22.8857C207.44 23.8057 206.88 25.1057 206.88 26.7857C206.88 28.1057 207.32 29.1457 208.2 29.9057C209.12 30.6657 210.36 31.2457 211.92 31.6457L217.44 33.0257C221.04 33.9057 223.84 35.4857 225.84 37.7657C227.84 40.0457 228.84 42.5857 228.84 45.3857C228.84 47.8657 228.24 50.0457 227.04 51.9257C225.84 53.7657 224.1 55.2057 221.82 56.2457C219.54 57.2857 216.78 57.8057 213.54 57.8057ZM235.045 69.0857V27.0857H242.485L242.965 32.6057V69.0857H235.045ZM252.025 57.8057C249.505 57.8057 247.365 57.1657 245.605 55.8857C243.885 54.6057 242.565 52.7857 241.645 50.4257C240.725 48.0657 240.265 45.2857 240.265 42.0857C240.265 38.8457 240.725 36.0657 241.645 33.7457C242.565 31.3857 243.885 29.5657 245.605 28.2857C247.365 27.0057 249.505 26.3657 252.025 26.3657C254.785 26.3657 257.165 27.0057 259.165 28.2857C261.205 29.5657 262.785 31.3857 263.905 33.7457C265.025 36.0657 265.585 38.8457 265.585 42.0857C265.585 45.2857 265.025 48.0657 263.905 50.4257C262.785 52.7857 261.205 54.6057 259.165 55.8857C257.165 57.1657 254.785 57.8057 252.025 57.8057ZM249.985 50.5457C251.425 50.5457 252.685 50.1857 253.765 49.4657C254.885 48.7457 255.765 47.7457 256.405 46.4657C257.045 45.1857 257.365 43.7257 257.365 42.0857C257.365 40.4457 257.045 38.9857 256.405 37.7057C255.805 36.4257 254.945 35.4457 253.825 34.7657C252.745 34.0457 251.485 33.6857 250.045 33.6857C248.685 33.6857 247.465 34.0457 246.385 34.7657C245.305 35.4857 244.465 36.4857 243.865 37.7657C243.265 39.0057 242.965 40.4457 242.965 42.0857C242.965 43.7257 243.265 45.1857 243.865 46.4657C244.465 47.7457 245.285 48.7457 246.325 49.4657C247.405 50.1857 248.625 50.5457 249.985 50.5457ZM284.88 57.8057C281.84 57.8057 279.12 57.1457 276.72 55.8257C274.36 54.4657 272.5 52.6057 271.14 50.2457C269.82 47.8857 269.16 45.1657 269.16 42.0857C269.16 39.0057 269.82 36.2857 271.14 33.9257C272.46 31.5657 274.3 29.7257 276.66 28.4057C279.02 27.0457 281.72 26.3657 284.76 26.3657C287.84 26.3657 290.56 27.0457 292.92 28.4057C295.28 29.7257 297.12 31.5657 298.44 33.9257C299.76 36.2857 300.42 39.0057 300.42 42.0857C300.42 45.1657 299.76 47.8857 298.44 50.2457C297.12 52.6057 295.28 54.4657 292.92 55.8257C290.6 57.1457 287.92 57.8057 284.88 57.8057ZM284.88 50.4857C286.36 50.4857 287.66 50.1257 288.78 49.4057C289.9 48.6857 290.76 47.7057 291.36 46.4657C292 45.1857 292.32 43.7257 292.32 42.0857C292.32 40.4457 292 39.0057 291.36 37.7657C290.72 36.4857 289.82 35.4857 288.66 34.7657C287.54 34.0457 286.24 33.6857 284.76 33.6857C283.32 33.6857 282.02 34.0457 280.86 34.7657C279.74 35.4857 278.86 36.4857 278.22 37.7657C277.58 39.0057 277.26 40.4457 277.26 42.0857C277.26 43.7257 277.58 45.1857 278.22 46.4657C278.86 47.7057 279.76 48.6857 280.92 49.4057C282.08 50.1257 283.4 50.4857 284.88 50.4857ZM318.003 57.8057C314.683 57.8057 312.163 56.9857 310.443 55.3457C308.763 53.7057 307.923 51.3657 307.923 48.3257V17.7257H315.843V46.5857C315.843 47.8657 316.123 48.8457 316.683 49.5257C317.243 50.1657 318.063 50.4857 319.143 50.4857C319.543 50.4857 319.983 50.4057 320.463 50.2457C320.943 50.0457 321.443 49.7657 321.963 49.4057L324.723 55.3457C323.763 56.0657 322.683 56.6457 321.483 57.0857C320.323 57.5657 319.163 57.8057 318.003 57.8057ZM303.063 33.8057V27.0857H323.343V33.8057H303.063Z" fill="black"/>
</svg>
